# xmcd
#
# Track frame offsets: 
#        150
#        17563
#        35020
#
# Disc length: 694 seconds
#
# Revision: 0
# Processed by: cddbd v1.5.2PL0 Copyright (c) Steve Scherf et al.
# Submitted via: ExactAudioCopy v0.95b4
#
DISCID=1b02b403
DTITLE=T-Pain - Buy U A Drank (Promo)
DYEAR=2007
DGENRE=R&B
TTITLE0=Buy You A Drank (ft. Yung Joc)
TTITLE1=Buy You A Drank (INST)
TTITLE2=Buy You A Drank (Acapella)
EXTD=
EXTT0=
EXTT1=
EXTT2=
PLAYORDER=
